<mxfile host="app.diagrams.net" modified="2022-03-03T11:35:02.664Z" agent="5.0 (Windows NT 10.0; Win64; x64) AppleWebKit/537.36 (KHTML, like Gecko) Chrome/97.0.4692.71 Safari/537.36" etag="2-2ZSjpHcxBZElH1Z29A" version="16.6.5" type="github">
  <diagram id="vMNVnHW-c6AnBPuJm9NJ" name="Page-1">
    <mxGraphModel dx="865" dy="490" grid="1" gridSize="10" guides="1" tooltips="1" connect="1" arrows="1" fold="1" page="1" pageScale="1" pageWidth="827" pageHeight="1169" math="0" shadow="0">
      <root>
        <mxCell id="0" />
        <mxCell id="1" parent="0" />
        <mxCell id="RdUd1zgc0EkiMDmJAwbM-2" value="state" style="ellipse;whiteSpace=wrap;html=1;fillColor=#FF3333;" vertex="1" parent="1">
          <mxGeometry x="530" y="90" width="86" height="40" as="geometry" />
        </mxCell>
        <mxCell id="RdUd1zgc0EkiMDmJAwbM-3" value="&lt;font style=&quot;font-size: 14px&quot;&gt;1&lt;/font&gt;" style="text;html=1;strokeColor=none;fillColor=none;align=center;verticalAlign=middle;whiteSpace=wrap;rounded=0;" vertex="1" parent="1">
          <mxGeometry x="510" y="70" width="60" height="30" as="geometry" />
        </mxCell>
        <mxCell id="RdUd1zgc0EkiMDmJAwbM-4" value="线程B&lt;br&gt;线程C" style="rounded=0;whiteSpace=wrap;html=1;fontSize=14;fillColor=#FFFFFF;" vertex="1" parent="1">
          <mxGeometry x="100" y="130" width="120" height="60" as="geometry" />
        </mxCell>
        <mxCell id="RdUd1zgc0EkiMDmJAwbM-5" value="线程A" style="rounded=0;whiteSpace=wrap;html=1;fontSize=14;fillColor=#FFFFFF;" vertex="1" parent="1">
          <mxGeometry x="450" y="90" width="50" height="40" as="geometry" />
        </mxCell>
        <mxCell id="RdUd1zgc0EkiMDmJAwbM-7" style="edgeStyle=orthogonalEdgeStyle;rounded=0;orthogonalLoop=1;jettySize=auto;html=1;exitX=1;exitY=0.25;exitDx=0;exitDy=0;fontSize=14;" edge="1" parent="1" source="RdUd1zgc0EkiMDmJAwbM-6">
          <mxGeometry relative="1" as="geometry">
            <mxPoint x="480" y="335" as="targetPoint" />
          </mxGeometry>
        </mxCell>
        <mxCell id="RdUd1zgc0EkiMDmJAwbM-6" value="线程B" style="rounded=0;whiteSpace=wrap;html=1;fontSize=14;fillColor=#FFFFFF;" vertex="1" parent="1">
          <mxGeometry x="290" y="320" width="120" height="60" as="geometry" />
        </mxCell>
        <mxCell id="RdUd1zgc0EkiMDmJAwbM-8" value="null" style="rounded=0;whiteSpace=wrap;html=1;fontSize=14;fillColor=#FFFFFF;" vertex="1" parent="1">
          <mxGeometry x="480" y="320" width="120" height="60" as="geometry" />
        </mxCell>
        <mxCell id="RdUd1zgc0EkiMDmJAwbM-10" style="edgeStyle=orthogonalEdgeStyle;rounded=0;orthogonalLoop=1;jettySize=auto;html=1;exitX=1;exitY=0.5;exitDx=0;exitDy=0;entryX=0.569;entryY=-0.017;entryDx=0;entryDy=0;entryPerimeter=0;fontSize=14;" edge="1" parent="1" source="RdUd1zgc0EkiMDmJAwbM-9" target="RdUd1zgc0EkiMDmJAwbM-8">
          <mxGeometry relative="1" as="geometry" />
        </mxCell>
        <mxCell id="RdUd1zgc0EkiMDmJAwbM-9" value="pred" style="rounded=0;whiteSpace=wrap;html=1;fontSize=14;fillColor=#FFFFFF;" vertex="1" parent="1">
          <mxGeometry x="70" y="270" width="120" height="60" as="geometry" />
        </mxCell>
      </root>
    </mxGraphModel>
  </diagram>
</mxfile>
